<?xml version="1.0" encoding="UTF-8" standalone="no"?>
<svg
   xmlns:osb="http://www.openswatchbook.org/uri/2009/osb"
   xmlns:dc="http://purl.org/dc/elements/1.1/"
   xmlns:cc="http://creativecommons.org/ns#"
   xmlns:rdf="http://www.w3.org/1999/02/22-rdf-syntax-ns#"
   xmlns:svg="http://www.w3.org/2000/svg"
   xmlns="http://www.w3.org/2000/svg"
   xmlns:xlink="http://www.w3.org/1999/xlink"
   xmlns:sodipodi="http://sodipodi.sourceforge.net/DTD/sodipodi-0.dtd"
   xmlns:inkscape="http://www.inkscape.org/namespaces/inkscape"
   width="45"
   height="10"
   viewBox="0 0 11.906249 2.6458334"
   version="1.1"
   id="svg8"
   inkscape:version="1.0 (4035a4fb49, 2020-05-01)"
   sodipodi:docname="logo-nav-path.svg">
  <defs
     id="defs2">
    <linearGradient
       inkscape:collect="always"
       id="linearGradient898">
      <stop
         style="stop-color:#d60b37;stop-opacity:1;"
         offset="0"
         id="stop894" />
      <stop
         style="stop-color:#d60b9d;stop-opacity:0.85490197"
         offset="1"
         id="stop896" />
    </linearGradient>
    <linearGradient
       id="linearGradient869"
       osb:paint="solid">
      <stop
         style="stop-color:#d60b37;stop-opacity:1;"
         offset="0"
         id="stop867" />
    </linearGradient>
    <linearGradient
       inkscape:collect="always"
       id="linearGradient853">
      <stop
         style="stop-color:#000000;stop-opacity:1;"
         offset="0"
         id="stop849" />
      <stop
         style="stop-color:#000000;stop-opacity:0;"
         offset="1"
         id="stop851" />
    </linearGradient>
    <radialGradient
       inkscape:collect="always"
       xlink:href="#linearGradient853"
       id="radialGradient857"
       cx="4.3405294"
       cy="-1.4592856"
       fx="4.3405294"
       fy="-1.4592856"
       r="3.1160932"
       gradientTransform="matrix(1,0,0,0.30217442,0,-1.0183268)"
       gradientUnits="userSpaceOnUse" />
    <linearGradient
       inkscape:collect="always"
       xlink:href="#linearGradient898"
       id="linearGradient900"
       x1="4.380537"
       y1="-1.2821093"
       x2="9.0606594"
       y2="-1.3884151"
       gradientUnits="userSpaceOnUse" />
  </defs>
  <sodipodi:namedview
     id="base"
     pagecolor="#ffffff"
     bordercolor="#666666"
     borderopacity="1.0"
     inkscape:pageopacity="0.0"
     inkscape:pageshadow="2"
     inkscape:zoom="7.9195959"
     inkscape:cx="30.545798"
     inkscape:cy="-8.5627373"
     inkscape:document-units="mm"
     inkscape:current-layer="layer1"
     inkscape:document-rotation="0"
     showgrid="false"
     units="px"
     inkscape:window-width="1300"
     inkscape:window-height="860"
     inkscape:window-x="124"
     inkscape:window-y="0"
     inkscape:window-maximized="0" />
  <metadata
     id="metadata5">
    <rdf:RDF>
      <cc:Work
         rdf:about="">
        <dc:format>image/svg+xml</dc:format>
        <dc:type
           rdf:resource="http://purl.org/dc/dcmitype/StillImage" />
        <dc:title></dc:title>
      </cc:Work>
    </rdf:RDF>
  </metadata>
  <g
     inkscape:label="Capa 1"
     inkscape:groupmode="layer"
     id="layer1">
    <text
       xml:space="preserve"
       style="font-size:10.5833px;line-height:1.25;font-family:Courgette;-inkscape-font-specification:Courgette;stroke-width:0.264583"
       x="0.96856397"
       y="1.3347285"
       id="text12"><tspan
         sodipodi:role="line"
         id="tspan10"
         x="0.96856397"
         y="1.3347285"
         style="stroke-width:0.264583" /></text>
    <g
       style="font-size:2.11667px;line-height:1.25;font-family:Courgette;-inkscape-font-specification:Courgette;white-space:pre;inline-size:0;opacity:0.999;fill:url(#linearGradient900);fill-opacity:1;stroke:#333333;stroke-width:0.05;stroke-miterlimit:4;stroke-dasharray:1.2, 0.05;stroke-dashoffset:0;stroke-opacity:1"
       id="text16"
       transform="translate(-1.1396606,2.6558134)"
       aria-label="Kawai">
      <path
         id="path846"
         style="font-size:2.11667px;fill:url(#linearGradient900);fill-opacity:1;stroke:#333333;stroke-width:0.05;stroke-miterlimit:4;stroke-dasharray:1.2, 0.05;stroke-dashoffset:0;stroke-opacity:1"
         d="m 2.7251216,-0.81338726 q 0.018604,0 0.018604,0.0227377 0,0.0227377 -0.015503,0.0454753 -0.014469,0.0227377 -0.043408,0.0434083 -0.071314,0.0496094 -0.151929,0.0496094 -0.079582,0 -0.1291913,-0.0237712 -0.049609,-0.0237712 -0.091984,-0.0630453 -0.042375,-0.0403077 -0.077515,-0.0919842 -0.03514,-0.0516765 -0.066146,-0.10748714 L 2.1070706,-1.0500657 q -0.1064537,-0.2025719 -0.1798343,-0.2366784 -0.2098066,0.56327397 -0.4495856,0.62528579 -0.015503,0.004134 -0.034107,0.004134 -0.019637,0 -0.03514,-0.006201 -0.016536,-0.006201 -0.027905,-0.0165365 -0.023771,-0.0196371 -0.023771,-0.0413412 0,-0.0227377 0.016537,-0.03514 0.1788007,-0.13125834 0.3607021,-0.67592881 0.10542,-0.3172937 0.1467612,-0.5725757 0.011369,-0.071314 0.011369,-0.1095542 -0.042375,0.00207 -0.079582,0.021704 -0.036174,0.019637 -0.062012,0.036174 -0.025838,0.016536 -0.042375,0.016536 -0.016536,0 -0.036174,-0.010335 -0.018603,-0.010335 -0.034106,-0.025838 -0.036174,-0.036173 -0.036174,-0.064079 0,-0.027905 0.016536,-0.046509 0.01757,-0.018604 0.043408,-0.03204 0.025838,-0.013436 0.056844,-0.022738 0.032039,-0.010335 0.062012,-0.015503 0.056844,-0.011369 0.098185,-0.011369 0.041341,0 0.086817,0.013436 0.045475,0.012402 0.078548,0.037207 0.072347,0.05271 0.072347,0.1302248 0,0.1643313 -0.099219,0.5208992 -0.032039,0.1157554 -0.072347,0.2315108 0.2501143,-0.1932702 0.3028244,-0.2366784 0.053743,-0.044442 0.1178224,-0.1064537 0.064079,-0.062012 0.1126548,-0.1281577 0.1054201,-0.1446942 0.1054201,-0.290422 0,-0.053744 -0.027905,-0.094051 -0.00827,-0.013436 -0.00827,-0.025838 0,-0.012402 0.0093,-0.022738 0.010335,-0.010335 0.024805,-0.01757 0.026872,-0.011369 0.068213,-0.011369 0.042375,0 0.075448,0.018604 0.034107,0.01757 0.056844,0.045475 0.044442,0.056844 0.044442,0.136426 0,0.078548 -0.032039,0.1529624 -0.03204,0.073381 -0.085783,0.1384931 -0.05271,0.065112 -0.1219565,0.1240236 -0.069247,0.058911 -0.1436607,0.1126548 l -0.1508954,0.1074871 q -0.074414,0.051677 -0.1384931,0.1033531 0.075448,0.058911 0.1757002,0.2056725 l 0.079582,0.118856 q 0.085783,0.13125829 0.138493,0.1725995 0.05271,0.0403077 0.086817,0.0403077 0.03514,0 0.056844,-0.0103353 0.021704,-0.0113688 0.034107,-0.0113688 z" />
      <path
         id="path848"
         style="font-size:2.11667px;fill:url(#linearGradient900);fill-opacity:1;stroke:#333333;stroke-width:0.05;stroke-miterlimit:4;stroke-dasharray:1.2, 0.05;stroke-dashoffset:0;stroke-opacity:1"
         d="m 3.6315276,-0.93637735 q 0,0.0950848 0.067179,0.0950848 0.046509,0 0.076481,-0.0144694 0.031006,-0.0144694 0.041341,-0.0144694 0.021704,0 0.021704,0.0227377 0,0.0888836 -0.093018,0.15296247 -0.098185,0.0671795 -0.2005048,0.033073 -0.067179,-0.0237712 -0.099219,-0.1023195 -0.015503,-0.0403077 -0.015503,-0.0733806 0,-0.0537436 0.010335,-0.11368833 -0.096118,0.19637075 -0.2387455,0.27078492 -0.056844,0.0289389 -0.120923,0.0289389 -0.064079,0 -0.1116213,-0.0258383 -0.046509,-0.0268718 -0.079582,-0.0733806 -0.067179,-0.0971518 -0.060978,-0.24391313 0.0062,-0.18396836 0.1085207,-0.36070206 0.094051,-0.1653648 0.237712,-0.2697514 0.1436607,-0.1064536 0.2687178,-0.1064536 0.1250572,0 0.2015384,0.1147219 0.071314,-0.1147219 0.1260907,-0.1147219 0.058911,0 0.088884,0.021704 0.056844,0.041341 0.040308,0.072347 -0.2594161,0.5312345 -0.2666508,0.6614593 -0.00207,0.0186035 -0.00207,0.0392742 z m -0.5736093,0.004134 q 0,0.12402363 0.079582,0.12402363 0.060978,0 0.1498619,-0.10335303 0.1302248,-0.15192897 0.2304772,-0.40927797 0.032039,-0.080615 0.053744,-0.1612307 -0.00413,-0.07028 -0.058911,-0.103353 -0.018604,-0.011369 -0.055811,-0.011369 -0.036173,0 -0.085783,0.026872 -0.048576,0.026872 -0.095085,0.073381 -0.045475,0.046509 -0.085783,0.1105877 -0.039274,0.063045 -0.069247,0.1374595 -0.063045,0.1591637 -0.063045,0.31626027 z" />
      <path
         id="path850"
         style="font-size:2.11667px;fill:url(#linearGradient900);fill-opacity:1;stroke:#333333;stroke-width:0.05;stroke-miterlimit:4;stroke-dasharray:1.2, 0.05;stroke-dashoffset:0;stroke-opacity:1"
         d="m 4.3208924,-0.77928076 q -0.1405601,0.12402363 -0.2211755,0.12402363 -0.079582,0 -0.1105877,-0.0826824 -0.011369,-0.0289388 -0.011369,-0.0537436 0,-0.0671795 0.020671,-0.13022481 0.021704,-0.0630453 0.042375,-0.11782247 l 0.090951,-0.2346113 q 0.05271,-0.1436607 0.064079,-0.2005049 0.011369,-0.056844 -0.0031,-0.076481 -0.014469,-0.020671 -0.034107,-0.03514 -0.018604,-0.015503 -0.036174,-0.026872 -0.016536,-0.012402 -0.016536,-0.029972 0,-0.018604 0.014469,-0.03514 0.015503,-0.016536 0.040308,-0.028939 0.049609,-0.023771 0.1023195,-0.023771 0.053744,0 0.083716,0.011369 0.031006,0.010335 0.050643,0.026872 0.038241,0.034107 0.038241,0.082682 0,0.047542 -0.016536,0.1074872 -0.015503,0.059945 -0.040308,0.1271242 -0.023771,0.067179 -0.053744,0.1395266 l -0.056844,0.1426272 q -0.067179,0.1725995 -0.081649,0.25838251 0.097152,-0.033073 0.257349,-0.23771191 0.1746666,-0.2242761 0.3090255,-0.5115975 0.015503,-0.036174 0.038241,-0.046509 0.037207,-0.01757 0.094051,-0.015503 0.089917,0.0031 0.093018,0.055811 0.00207,0.03204 -0.01757,0.071314 -0.018603,0.038241 -0.031006,0.064079 l -0.040308,0.082682 q -0.120923,0.2449467 -0.120923,0.39790913 0,0.10645361 0.057878,0.14572776 0.016536,0.0124024 0.050643,0.0124024 0.034107,0 0.080615,-0.0237712 0.046509,-0.0248047 0.088884,-0.0671795 0.042375,-0.0423747 0.078548,-0.0981854 0.037207,-0.056844 0.064079,-0.120923 0.056844,-0.1353925 0.056844,-0.239779 0,-0.1788008 -0.067179,-0.2635502 -0.022738,-0.026872 0.013436,-0.063045 0.038241,-0.038241 0.1198895,-0.038241 0.1002524,0 0.136426,0.1126548 0.014469,0.042375 0.014469,0.1271242 0,0.08475 -0.029972,0.189136 -0.029972,0.1033531 -0.081649,0.1994714 -0.050643,0.095085 -0.1178224,0.17776718 -0.066146,0.0826824 -0.1395266,0.1436607 -0.1570966,0.13022481 -0.2914555,0.13022481 -0.2304773,0 -0.2304773,-0.2976567 0,-0.068213 0.012402,-0.13332539 -0.1219566,0.17776718 -0.2635502,0.30282434 z" />
      <path
         id="path852"
         style="font-size:2.11667px;fill:url(#linearGradient900);fill-opacity:1;stroke:#333333;stroke-width:0.05;stroke-miterlimit:4;stroke-dasharray:1.2, 0.05;stroke-dashoffset:0;stroke-opacity:1"
         d="m 6.3683154,-0.93637735 q 0,0.0950848 0.067179,0.0950848 0.046509,0 0.076481,-0.0144694 0.031006,-0.0144694 0.041341,-0.0144694 0.021704,0 0.021704,0.0227377 0,0.0888836 -0.093018,0.15296247 -0.098185,0.0671795 -0.2005048,0.033073 -0.067179,-0.0237712 -0.099219,-0.1023195 -0.015503,-0.0403077 -0.015503,-0.0733806 0,-0.0537436 0.010335,-0.11368833 -0.096118,0.19637075 -0.2387455,0.27078492 -0.056844,0.0289389 -0.120923,0.0289389 -0.064079,0 -0.1116213,-0.0258383 -0.046509,-0.0268718 -0.079582,-0.0733806 -0.067179,-0.0971518 -0.060978,-0.24391313 0.0062,-0.18396836 0.1085207,-0.36070206 0.094051,-0.1653648 0.237712,-0.2697514 0.1436607,-0.1064536 0.2687178,-0.1064536 0.1250572,0 0.2015384,0.1147219 0.071314,-0.1147219 0.1260907,-0.1147219 0.058911,0 0.088884,0.021704 0.056844,0.041341 0.040308,0.072347 -0.2594161,0.5312345 -0.2666508,0.6614593 -0.00207,0.0186035 -0.00207,0.0392742 z m -0.5736093,0.004134 q 0,0.12402363 0.079582,0.12402363 0.060978,0 0.1498618,-0.10335303 0.1302249,-0.15192897 0.2304773,-0.40927797 0.032039,-0.080615 0.053744,-0.1612307 -0.00413,-0.07028 -0.058911,-0.103353 -0.018604,-0.011369 -0.055811,-0.011369 -0.036174,0 -0.085783,0.026872 -0.048576,0.026872 -0.095085,0.073381 -0.045475,0.046509 -0.085783,0.1105877 -0.039274,0.063045 -0.069247,0.1374595 -0.063045,0.1591637 -0.063045,0.31626027 z" />
      <path
         id="path854"
         style="font-size:2.11667px;fill:url(#linearGradient900);fill-opacity:1;stroke:#333333;stroke-width:0.05;stroke-miterlimit:4;stroke-dasharray:1.2, 0.05;stroke-dashoffset:0;stroke-opacity:1"
         d="m 7.273688,-1.9730082 q -0.022738,0.023771 -0.051677,0.039274 -0.028939,0.014469 -0.060978,0.018603 -0.032039,0.0031 -0.060978,-0.010335 -0.027905,-0.013436 -0.048576,-0.038241 -0.044442,-0.051677 -0.044442,-0.1043865 0,-0.05271 0.016536,-0.078548 0.01757,-0.026872 0.043408,-0.043408 0.049609,-0.032039 0.093018,-0.032039 0.044442,0 0.068213,0.0062 0.024805,0.0062 0.045475,0.020671 0.050643,0.034107 0.050643,0.083716 0,0.048576 -0.014469,0.081649 -0.013436,0.032039 -0.036174,0.056844 z m -0.2118737,1.11827974 q 0.026872,0 0.026872,0.03514 0,0.0465089 -0.042375,0.0961183 -0.062012,0.0723471 -0.1663984,0.0723471 -0.1198895,0 -0.1643313,-0.0971518 -0.016537,-0.0341065 -0.016537,-0.0826824 0,-0.0485759 0.016537,-0.10748714 0.01757,-0.0599448 0.042375,-0.12505719 0.025838,-0.066146 0.055811,-0.1333254 l 0.054777,-0.1302248 q 0.059945,-0.1457277 0.059945,-0.1922366 0,-0.046509 -0.010335,-0.060978 -0.0093,-0.015503 -0.020671,-0.023771 l -0.020671,-0.014469 q -0.010335,-0.00723 -0.010335,-0.024805 0,-0.018604 0.013436,-0.03514 0.014469,-0.016536 0.037207,-0.028939 0.046509,-0.023771 0.1085207,-0.023771 0.1519289,0 0.1519289,0.079582 0,0.093018 -0.048576,0.2129073 -0.048576,0.1188559 -0.082682,0.1922366 l -0.062012,0.1426272 q -0.068213,0.15709655 -0.068213,0.22634307 0,0.0454753 0.045475,0.0454753 0.044442,0 0.067179,-0.0113688 0.022738,-0.0113688 0.033073,-0.0113688 z" />
    </g>
    <g
       style="font-size:1.76389px;line-height:1.25;font-family:Courgette;-inkscape-font-specification:Courgette;white-space:pre;inline-size:0;stroke-width:0.05;stroke-miterlimit:4;stroke-dasharray:1.2, 0.05;stroke-dashoffset:0"
       id="text904"
       transform="translate(-0.4009043,0.63476516)"
       aria-label="Sushi">
      <path
         id="path857"
         style="font-size:2.11667px;fill:#f2f6fa;fill-opacity:1;stroke:#333333;stroke-width:0.05;stroke-miterlimit:4;stroke-dasharray:1.2, 0.05;stroke-dashoffset:0;stroke-opacity:1"
         d="m 7.4099095,1.0679391 -0.0093,0.079582 q 0,0.1250571 0.083716,0.1705324 0.028939,0.015503 0.069247,0.015503 0.040308,0 0.072347,-0.013436 0.032039,-0.014469 0.05271,-0.037207 0.043408,-0.046509 0.043408,-0.1074871 0,-0.060978 -0.024805,-0.1105878 -0.024805,-0.049609 -0.062012,-0.0992189 L 7.5525366,0.86433368 Q 7.4522842,0.74444417 7.4181777,0.6462588 7.3840712,0.5470399 7.3840712,0.46435748 q 0,-0.0826824 0.019637,-0.15606306 0.020671,-0.0744142 0.056844,-0.14056011 0.036174,-0.0671795 0.086817,-0.1229901 0.050643,-0.05581063 0.1126548,-0.09611831 0.1291912,-0.08681654 0.2563155,-0.08681654 0.1271242,0 0.1984378,0.03514 0.071314,0.03514003 0.1147218,0.0888836 0.080615,0.10128596 0.080615,0.24494666 0,0.1333254 -0.075448,0.25114784 -0.069247,0.10748715 -0.1550296,0.13642599 -0.018603,0.009302 -0.051676,0.009302 -0.032039,0 -0.054777,-0.009302 -0.021704,-0.0103353 -0.038241,-0.0268718 -0.036174,-0.0361736 -0.036174,-0.0785483 0,-0.0289388 0.01757,-0.0382406 0.078548,-0.0423747 0.136426,-0.12299009 0.063045,-0.0878501 0.066146,-0.17466661 0.0031,-0.08785007 -0.042375,-0.12919128 -0.044442,-0.04237474 -0.1188559,-0.04237474 -0.074414,0 -0.134359,0.0341065 -0.059945,0.03307297 -0.103353,0.08991713 -0.093018,0.12195656 -0.093018,0.28835493 0,0.11058773 0.076481,0.23357783 0.032039,0.05271 0.069247,0.10438655 0.038241,0.050643 0.071314,0.10438656 0.075448,0.12505715 0.075448,0.22427604 0,0.099219 -0.036174,0.1674319 -0.03514,0.068213 -0.094051,0.118856 -0.1271242,0.1095542 -0.2893884,0.1095542 -0.1529625,0 -0.2356449,-0.090951 -0.066146,-0.073381 -0.066146,-0.1591636 0,-0.093018 0.05271,-0.1570966 0.040308,-0.048576 0.077515,-0.057878 0.081649,-0.0217042 0.081649,0.05271 z" />
      <path
         id="path859"
         style="font-size:2.11667px;fill:#f2f6fa;fill-opacity:1;stroke:#333333;stroke-width:0.05;stroke-miterlimit:4;stroke-dasharray:1.2, 0.05;stroke-dashoffset:0;stroke-opacity:1"
         d="m 9.1927491,1.2663769 q 0.023771,0 0.023771,0.023771 0,0.089917 -0.088884,0.1508954 -0.059945,0.039274 -0.1405602,0.039274 -0.066146,0 -0.1012859,-0.031006 -0.063045,-0.055811 -0.063045,-0.136426 0,-0.1023195 0.085783,-0.31315967 Q 8.7493646,1.2147004 8.6852857,1.286014 q -0.064079,0.07028 -0.1116212,0.1095542 -0.1033531,0.08475 -0.187069,0.08475 -0.1281578,0 -0.1705325,-0.1105877 -0.012402,-0.034106 -0.012402,-0.077515 0,-0.044442 0.01447,-0.098185 0.015503,-0.054777 0.039274,-0.1136883 0.023771,-0.058911 0.051677,-0.12092304 L 8.3648913,0.83539483 Q 8.4723785,0.59664935 8.4444732,0.55220755 8.4320708,0.53257047 8.3979643,0.5129334 8.385562,0.50569869 8.385562,0.48812868 q 0,-0.0186035 0.014469,-0.03514 0.015503,-0.0165365 0.039274,-0.0289389 0.050643,-0.0237712 0.101286,-0.0237712 0.050643,0 0.076481,0.0113688 0.026872,0.0103353 0.043408,0.0268718 0.034107,0.0341065 0.034107,0.0754477 0,0.0413412 -0.013436,0.0930177 -0.013436,0.050643 -0.03514,0.11058773 -0.021704,0.0599448 -0.047542,0.12402363 -0.071314,0.16743189 -0.096118,0.22117549 l -0.038241,0.079582 q -0.032039,0.071314 -0.032039,0.1002524 0,0.028939 0.0093,0.041341 0.0093,0.011369 0.033073,0.011369 0.024805,0 0.056844,-0.022738 0.032039,-0.022738 0.07028,-0.060978 0.038241,-0.038241 0.079582,-0.08785 0.041341,-0.050643 0.080615,-0.1043866 0.077515,-0.10542007 0.1136883,-0.16949895 0.2191084,-0.38757383 0.2335778,-0.40514384 0.033073,-0.0444418 0.067179,-0.0444418 0.03514,0 0.060978,0.008268 0.025838,0.007235 0.044442,0.0217041 0.043408,0.0320394 0.027905,0.0640789 -0.2521814,0.52606684 -0.2718185,0.66145934 -0.00517,0.046509 -0.00517,0.064079 0,0.078548 0.047542,0.078548 0.044442,0 0.073381,-0.015503 0.028939,-0.016536 0.039274,-0.016536 z" />
      <path
         id="path861"
         style="font-size:2.11667px;fill:#f2f6fa;fill-opacity:1;stroke:#333333;stroke-width:0.05;stroke-miterlimit:4;stroke-dasharray:1.2, 0.05;stroke-dashoffset:0;stroke-opacity:1"
         d="m 9.3488122,1.2880811 q 0,-0.03204 0.013436,-0.058911 0.014469,-0.027905 0.03514,-0.046509 0.043408,-0.040308 0.090951,-0.040308 0.041341,0 0.041341,0.042375 0,0.1074872 0.071314,0.1498619 0.025838,0.015503 0.053744,0.015503 0.027905,0 0.047542,-0.0062 0.019637,-0.0062 0.036173,-0.019637 0.037207,-0.029972 0.037207,-0.071314 0,-0.041341 -0.018604,-0.075448 -0.018604,-0.03514 -0.046509,-0.073381 L 9.6516366,1.0214303 Q 9.527613,0.85606543 9.527613,0.71653885 q 0,-0.11575538 0.098185,-0.20980663 0.1116213,-0.10645361 0.2862879,-0.10645361 0.1529628,0 0.2387458,0.0754477 0.07028,0.0609783 0.07028,0.13952658 0,0.0816489 -0.06201,0.13022481 -0.05581,0.0434083 -0.111621,0.0320394 -0.0248,-0.005168 -0.03824,-0.0248047 -0.013436,-0.0206706 -0.0052,-0.0465089 0.0083,-0.0258383 0.0083,-0.0537436 0,-0.0279053 -0.01034,-0.0516765 -0.010335,-0.0237712 -0.027905,-0.0403077 -0.036174,-0.0341065 -0.076481,-0.0341065 -0.039274,0 -0.065112,0.009302 -0.025838,0.008268 -0.045475,0.0248047 -0.040308,0.0372071 -0.040308,0.0919842 0,0.0537436 0.018603,0.0930177 0.018604,0.0392742 0.045475,0.0785483 0.027905,0.0392742 0.059945,0.0795818 0.032039,0.0403077 0.058911,0.0847495 0.065112,0.1043866 0.065112,0.1839684 0,0.078548 -0.033073,0.1322919 -0.033073,0.05271 -0.085783,0.090951 -0.1126547,0.083716 -0.2521813,0.083716 -0.1333254,0 -0.2108402,-0.064079 -0.064079,-0.053744 -0.064079,-0.1271242 z" />
      <path
         id="path863"
         style="font-size:2.11667px;fill:#f2f6fa;fill-opacity:1;stroke:#333333;stroke-width:0.05;stroke-miterlimit:4;stroke-dasharray:1.2, 0.05;stroke-dashoffset:0;stroke-opacity:1"
         d="m 11.041735,0.59561582 q -0.05684,0 -0.203606,0.17363308 l -0.08578,0.10542008 -0.165365,0.21600782 q -0.05994,0.1136883 -0.09405,0.189136 l -0.05581,0.1198895 q -0.0217,0.044442 -0.03824,0.063045 -0.0155,0.01757 -0.04341,0.01757 -0.02687,0 -0.05271,-0.010335 -0.0248,-0.0093 -0.04341,-0.024805 -0.03927,-0.033073 -0.03927,-0.072347 0,-0.015503 0.0217,-0.060978 l 0.04134,-0.083716 q 0.193271,-0.39790912 0.350367,-1.00872548 0.05788,-0.22530959 0.08372,-0.40514385 0.01137,-0.0868165 0.08475,-0.0868165 0.04754,0 0.07855,0.0227377 0.05994,0.0444418 0.05788,0.0950848 -0.0021,0.050643 -0.01447,0.11368832 -0.0124,0.06304535 -0.03204,0.13745952 -0.01964,0.07338065 -0.04444,0.15502953 -0.06821,0.20773958 -0.101286,0.29972377 -0.101286,0.27801963 -0.125057,0.32556202 0.0155,-0.0186036 0.04031,-0.050643 0.188103,-0.24701373 0.232545,-0.29455612 0.04444,-0.0485759 0.07545,-0.0744142 0.06511,-0.0568442 0.165365,-0.0568442 0.08165,0 0.131259,0.0547771 0.04651,0.05271 0.04651,0.11575538 0,0.0620118 -0.01447,0.1126548 -0.01344,0.0496094 -0.03514,0.10128596 -0.0217,0.0516765 -0.04754,0.10645361 l -0.05168,0.10852067 q -0.07235,0.16433127 -0.07235,0.24391317 0,0.055811 0.04547,0.055811 0.04341,0 0.07855,-0.018603 0.03617,-0.018604 0.04651,-0.018604 0.0217,0 0.0217,0.021704 0,0.091984 -0.09302,0.153996 -0.06408,0.042375 -0.116789,0.042375 -0.05271,0 -0.08785,-0.010335 -0.03411,-0.011369 -0.06098,-0.036174 -0.06098,-0.055811 -0.06098,-0.1643313 0,-0.1167889 0.07648,-0.29352256 L 11.05207,0.73824299 q 0.03204,-0.0661459 0.03204,-0.10438655 0,-0.0382406 -0.04237,-0.0382406 z" />
      <path
         id="path865"
         style="font-size:2.11667px;fill:#f2f6fa;fill-opacity:1;stroke:#333333;stroke-width:0.05;stroke-miterlimit:4;stroke-dasharray:1.2, 0.05;stroke-dashoffset:0;stroke-opacity:1"
         d="m 12.027723,0.15843253 q -0.02274,0.0237712 -0.05168,0.0392742 -0.02894,0.0144694 -0.06098,0.0186035 -0.03204,0.003101 -0.06098,-0.0103353 -0.02791,-0.0134359 -0.04858,-0.0382406 -0.04444,-0.0516765 -0.04444,-0.10438656 0,-0.05271004 0.01654,-0.07854829 0.01757,-0.02687179 0.04341,-0.04340827 0.04961,-0.03203944 0.09302,-0.03203944 0.04444,0 0.06821,0.0062012 0.02481,0.0062012 0.04548,0.02067061 0.05064,0.03410649 0.05064,0.08371595 0,0.04857592 -0.01447,0.08164888 -0.01344,0.0320394 -0.03617,0.0568442 z M 11.815849,1.2767122 q 0.02687,0 0.02687,0.03514 0,0.046509 -0.04237,0.096118 -0.06201,0.072347 -0.166398,0.072347 -0.11989,0 -0.164332,-0.097152 -0.01654,-0.034107 -0.01654,-0.082682 0,-0.048576 0.01654,-0.1074871 0.01757,-0.059945 0.04237,-0.1250572 0.02584,-0.066146 0.05581,-0.13332537 l 0.05478,-0.13022481 q 0.05995,-0.14572776 0.05995,-0.19223662 0,-0.0465089 -0.01034,-0.0609783 -0.0093,-0.015503 -0.02067,-0.0237712 l -0.02067,-0.0144694 q -0.01033,-0.007235 -0.01033,-0.0248047 0,-0.0186035 0.01344,-0.03514 0.01447,-0.0165365 0.03721,-0.0289389 0.04651,-0.0237712 0.10852,-0.0237712 0.151929,0 0.151929,0.0795818 0,0.0930177 -0.04858,0.21290723 -0.04857,0.11885597 -0.08268,0.19223662 l -0.06201,0.14262722 q -0.06821,0.1570965 -0.06821,0.2263431 0,0.045475 0.04548,0.045475 0.04444,0 0.06718,-0.011369 0.02274,-0.011369 0.03307,-0.011369 z" />
    </g>
  </g>
</svg>
